<svg width="13" height="13" viewBox="0 0 13 13" fill="none" xmlns="http://www.w3.org/2000/svg">
<g clip-path="url(#clip0_468_340)">
<path d="M2.12158 5.57635C2.08025 5.61846 2.03094 5.65192 1.97653 5.67476C1.92212 5.6976 1.86371 5.70936 1.8047 5.70936C1.74569 5.70936 1.68728 5.6976 1.63287 5.67476C1.57846 5.65192 1.52915 5.61846 1.48783 5.57635C1.40371 5.49077 1.35657 5.37557 1.35657 5.25557C1.35657 5.13557 1.40371 5.02037 1.48783 4.9348L5.40798 0.974996C6.29198 0.288596 7.18118 -0.0409541 8.06648 0.00389594C9.18188 0.0610959 10.0503 0.486196 10.7874 1.18365C11.5388 1.89475 12.025 2.9094 12.025 4.1392C12.025 5.083 11.7507 5.9137 11.1715 6.6508L5.64458 12.3448C5.08558 12.803 4.46418 13.0247 3.79858 12.998C2.95358 12.9629 2.32503 12.6899 1.85768 12.2278C1.31038 11.6876 0.974976 11.024 0.974976 10.1315C0.974976 9.42175 1.22003 8.76655 1.72573 8.15165L6.59033 3.185C6.98033 2.769 7.36188 2.522 7.75187 2.4622C8.01218 2.4212 8.27856 2.44448 8.52781 2.53002C8.77705 2.61555 9.0016 2.76075 9.18188 2.95295C9.52768 3.3189 9.67587 3.7752 9.62387 4.29455C9.58813 4.6488 9.44318 4.9751 9.17667 5.28775L4.70468 9.86895C4.66362 9.91122 4.61455 9.9449 4.56035 9.96801C4.50614 9.99113 4.44787 10.0032 4.38894 10.0036C4.33001 10.0039 4.2716 9.99257 4.21711 9.97013C4.16263 9.94768 4.11315 9.91461 4.07158 9.87285C3.98693 9.78778 3.9391 9.67287 3.93837 9.55287C3.93764 9.43287 3.98408 9.31738 4.06768 9.2313L8.51823 4.6735C8.64822 4.52075 8.71648 4.3667 8.73273 4.2029C8.75873 3.9429 8.69633 3.75115 8.53448 3.5802C8.45274 3.49264 8.35062 3.42665 8.23722 3.3881C8.12382 3.34954 8.00264 3.33961 7.88448 3.3592C7.72653 3.38325 7.50553 3.5269 7.23318 3.8168L2.38873 8.76135C2.03968 9.1871 1.87068 9.63885 1.87068 10.1322C1.87068 10.7523 2.09493 11.1962 2.48298 11.5791C2.79173 11.8846 3.21098 12.0666 3.83498 12.0926C4.27698 12.1101 4.68648 11.9639 5.04268 11.6753L10.5007 6.0528C10.92 5.51525 11.1293 4.8828 11.1293 4.13985C11.1293 3.17655 10.7542 2.39525 10.1751 1.84665C9.58358 1.28635 8.90758 0.956146 8.02163 0.910646C7.36643 0.876846 6.67938 1.13165 5.99558 1.65555L2.12158 5.57635Z" fill="#374254"/>
</g>
<defs>
<clipPath id="clip0_468_340">
<rect width="13" height="13" fill="white"/>
</clipPath>
</defs>
</svg>
