<svg width="14" height="13" viewBox="0 0 14 13" fill="none" xmlns="http://www.w3.org/2000/svg">
<path d="M2.5062 10.857L4.37165 10.2465L4.70765 10.4067C5.48522 10.7768 6.37388 10.974 7.34424 10.974C10.5537 10.974 12.8524 8.72474 12.8524 6.02164C12.8524 3.30863 10.5702 1.06926 7.34424 1.06926C4.11827 1.06926 1.83604 3.30863 1.83604 6.02164C1.84146 7.05986 2.19 8.06836 2.82935 8.89582L3.13965 9.30101L2.5062 10.8561V10.857ZM1.85715 12.0185C1.77408 12.0458 1.68477 12.0492 1.59978 12.0283C1.5148 12.0075 1.43768 11.9632 1.37753 11.9007C1.31739 11.8382 1.27674 11.7601 1.26038 11.6757C1.24403 11.5913 1.25264 11.504 1.28522 11.4242L2.09584 9.43698C1.3368 8.45353 0.923498 7.2551 0.918007 6.02164C0.918007 3.0376 3.38017 0.168823 7.34424 0.168823C11.3083 0.168823 13.7705 3.0376 13.7705 6.02164C13.7705 9.00567 11.2826 11.8745 7.34424 11.8745C6.20129 11.8745 5.18043 11.6331 4.30738 11.2171L1.85624 12.0185H1.85715Z" fill="#0E1424"/>
</svg>
