<svg width="12" height="13" viewBox="0 0 12 13" fill="none" xmlns="http://www.w3.org/2000/svg">
<path d="M10.9107 11.5006C10.9599 11.5498 10.9876 11.6165 10.9876 11.686C10.9876 11.7556 10.9599 11.8223 10.9107 11.8714C10.8614 11.9206 10.7946 11.9482 10.725 11.9482C10.6553 11.9482 10.5885 11.9206 10.5393 11.8714L5.99998 7.33994L1.46069 11.8714C1.41144 11.9206 1.34463 11.9482 1.27498 11.9482C1.20532 11.9482 1.13851 11.9206 1.08926 11.8714C1.04 11.8223 1.01233 11.7556 1.01233 11.686C1.01233 11.6165 1.04 11.5498 1.08926 11.5006L5.62854 6.96914L1.08926 2.43765C1.04 2.38848 1.01233 2.32179 1.01233 2.25225C1.01233 2.18271 1.04 2.11602 1.08926 2.06685C1.13851 2.01768 1.20532 1.99005 1.27498 1.99005C1.34463 1.99005 1.41144 2.01768 1.46069 2.06685L5.99998 6.59834L10.5393 2.06685C10.5636 2.0425 10.5926 2.02319 10.6245 2.01001C10.6563 1.99683 10.6905 1.99005 10.725 1.99005C10.7595 1.99005 10.7936 1.99683 10.8255 2.01001C10.8574 2.02319 10.8863 2.0425 10.9107 2.06685C10.9351 2.09119 10.9544 2.1201 10.9676 2.15191C10.9808 2.18372 10.9876 2.21781 10.9876 2.25225C10.9876 2.28668 10.9808 2.32077 10.9676 2.35258C10.9544 2.3844 10.9351 2.4133 10.9107 2.43765L6.37141 6.96914L10.9107 11.5006Z" fill="#0E1424"/>
</svg>
