<svg width="15" height="13" viewBox="0 0 15 13" fill="none" xmlns="http://www.w3.org/2000/svg">
<path d="M7.50001 12.4131C7.40794 12.4129 7.31857 12.3823 7.24584 12.3263C4.92917 10.5395 3.33334 9.00091 2.21667 7.48299C0.791672 5.54319 0.466672 3.75229 1.25001 2.15992C1.80834 1.02251 3.41251 0.0919025 5.28751 0.633722C6.18148 0.890048 6.96146 1.43975 7.50001 2.19301C8.03855 1.43975 8.81853 0.890048 9.71251 0.633722C11.5833 0.100175 13.1917 1.02251 13.75 2.15992C14.5333 3.75229 14.2083 5.54319 12.7833 7.48299C11.6667 9.00091 10.0708 10.5395 7.75417 12.3263C7.68144 12.3823 7.59207 12.4129 7.50001 12.4131ZM4.22084 1.3079C3.77469 1.29066 3.33224 1.39436 2.94098 1.60786C2.54972 1.82136 2.22442 2.13661 2.00001 2.51975C1.35417 3.83501 1.64584 5.29916 2.89167 6.9908C4.21566 8.68598 5.76601 10.1943 7.50001 11.4743C9.23372 10.1956 10.7841 8.68866 12.1083 6.99494C13.3583 5.29916 13.6458 3.83501 13 2.52389C12.5833 1.69668 11.3333 1.03905 9.94167 1.42784C9.49544 1.55875 9.08176 1.78094 8.72726 2.08012C8.37276 2.37931 8.08528 2.74885 7.88334 3.16497C7.85195 3.24083 7.79854 3.30571 7.72992 3.35138C7.66129 3.39704 7.58054 3.42142 7.49792 3.42142C7.41531 3.42142 7.33455 3.39704 7.26593 3.35138C7.1973 3.30571 7.1439 3.24083 7.11251 3.16497C6.91208 2.74781 6.6251 2.3774 6.27038 2.07803C5.91565 1.77866 5.5012 1.55709 5.05417 1.42784C4.78333 1.34975 4.50287 1.30939 4.22084 1.3079Z" fill="#0E1424"/>
</svg>
