<svg width="13" height="11" viewBox="0 0 13 11" fill="none" xmlns="http://www.w3.org/2000/svg">
<path d="M12.5946 1.55228C12.0501 0.504292 10.4817 -0.353154 8.65741 0.14607C7.78566 0.382245 7.02507 0.888727 6.49991 1.58277C5.97475 0.888727 5.21416 0.382245 4.34241 0.14607C2.51401 -0.345533 0.949719 0.504292 0.405264 1.55228C-0.358599 3.01947 -0.0416769 4.66958 1.3479 6.45688C2.43681 7.85547 3.99298 9.27311 6.25206 10.9194C6.32345 10.9716 6.4114 11 6.50194 11C6.59248 11 6.68043 10.9716 6.75182 10.9194C9.00684 9.27692 10.5671 7.87071 11.656 6.45688C13.0415 4.66958 13.3584 3.01947 12.5946 1.55228Z" fill="#C60B0B"/>
</svg>
