<svg width="6" height="6" viewBox="0 0 6 6" fill="none" xmlns="http://www.w3.org/2000/svg">
<path d="M2.56247 0.5C2.95446 0.499957 3.33835 0.61162 3.66916 0.821908C3.99996 1.0322 4.264 1.3324 4.43032 1.68735C4.59665 2.0423 4.65838 2.43731 4.60829 2.82608C4.55819 3.21486 4.39835 3.58131 4.14747 3.8825L5.56997 5.305C5.59465 5.32792 5.6127 5.35707 5.6222 5.38938C5.6317 5.42169 5.63232 5.45597 5.62397 5.4886C5.61563 5.52123 5.59864 5.55101 5.57479 5.57479C5.55095 5.59858 5.52112 5.61549 5.48847 5.62375C5.45588 5.6321 5.42164 5.63152 5.38934 5.62206C5.35705 5.6126 5.32791 5.59462 5.30497 5.57L3.88247 4.1475C3.62793 4.35944 3.32609 4.50696 3.00248 4.57758C2.67887 4.6482 2.34301 4.63984 2.02331 4.55321C1.70362 4.46658 1.40949 4.30423 1.1658 4.07989C0.922119 3.85554 0.73605 3.57581 0.623336 3.26436C0.510622 2.9529 0.474578 2.61887 0.518253 2.29054C0.561928 1.96221 0.684038 1.64922 0.874252 1.37806C1.06447 1.1069 1.31719 0.885535 1.61105 0.732697C1.9049 0.57986 2.23125 0.500044 2.56247 0.5ZM0.874972 2.5625C0.874972 2.78411 0.918621 3.00354 1.00343 3.20828C1.08823 3.41302 1.21253 3.59904 1.36923 3.75574C1.52593 3.91244 1.71196 4.03674 1.91669 4.12155C2.12143 4.20635 2.34087 4.25 2.56247 4.25C2.78408 4.25 3.00351 4.20635 3.20825 4.12155C3.41299 4.03674 3.59902 3.91244 3.75572 3.75574C3.91241 3.59904 4.03671 3.41302 4.12152 3.20828C4.20632 3.00354 4.24997 2.78411 4.24997 2.5625C4.24997 2.11495 4.07218 1.68572 3.75572 1.36926C3.43925 1.05279 3.01003 0.875 2.56247 0.875C2.11492 0.875 1.6857 1.05279 1.36923 1.36926C1.05276 1.68572 0.874972 2.11495 0.874972 2.5625Z" fill="#374254"/>
</svg>
