<svg width="23" height="25" viewBox="0 0 23 25" fill="none" xmlns="http://www.w3.org/2000/svg">
<g clip-path="url(#clip0_387_324)" filter="url(#filter0_d_387_324)">
<path d="M18.1368 10.4713C18.2712 10.5488 18.3807 10.6629 18.4527 10.8004C18.5247 10.9378 18.5561 11.0928 18.5432 11.2474C18.5304 11.402 18.4739 11.5498 18.3803 11.6735C18.2867 11.7972 18.1599 11.8917 18.0146 11.946L7.09313 16.0366C6.37478 16.3057 5.71426 15.5258 6.09792 14.8612L8.38513 10.8997C8.47312 10.7473 8.52731 10.5778 8.54403 10.4026C8.56074 10.2274 8.53958 10.0507 8.48198 9.88445L7.0379 5.72201C6.78986 5.00639 7.56414 4.36716 8.22015 4.74591L18.1368 10.4713ZM6.80635 15.2703L17.7278 11.1797L7.81114 5.45434L9.25451 9.61637C9.35062 9.89349 9.38598 10.188 9.35821 10.48C9.33044 10.772 9.24018 11.0547 9.09356 11.3087L6.80635 15.2703Z" fill="#374254"/>
</g>
<defs>
<filter id="filter0_d_387_324" x="-3.99994" y="1.52588e-05" width="30.3489" height="30.349" filterUnits="userSpaceOnUse" color-interpolation-filters="sRGB">
<feFlood flood-opacity="0" result="BackgroundImageFix"/>
<feColorMatrix in="SourceAlpha" type="matrix" values="0 0 0 0 0 0 0 0 0 0 0 0 0 0 0 0 0 0 127 0" result="hardAlpha"/>
<feOffset dy="4"/>
<feGaussianBlur stdDeviation="2"/>
<feComposite in2="hardAlpha" operator="out"/>
<feColorMatrix type="matrix" values="0 0 0 0 0 0 0 0 0 0 0 0 0 0 0 0 0 0 0.25 0"/>
<feBlend mode="normal" in2="BackgroundImageFix" result="effect1_dropShadow_387_324"/>
<feBlend mode="normal" in="SourceGraphic" in2="effect1_dropShadow_387_324" result="shape"/>
</filter>
<clipPath id="clip0_387_324">
<rect width="16.3606" height="16.3606" fill="white" transform="translate(22.349 8.1803) rotate(120)"/>
</clipPath>
</defs>
</svg>
