<svg width="13" height="13" viewBox="0 0 13 13" fill="none" xmlns="http://www.w3.org/2000/svg">
<g clip-path="url(#clip0_419_135)">
<path d="M2.12158 5.57636C2.08025 5.61848 2.03094 5.65193 1.97653 5.67477C1.92212 5.69761 1.86371 5.70937 1.8047 5.70937C1.74569 5.70937 1.68728 5.69761 1.63287 5.67477C1.57846 5.65193 1.52915 5.61848 1.48783 5.57636C1.40371 5.49078 1.35657 5.37558 1.35657 5.25559C1.35657 5.13559 1.40371 5.02039 1.48783 4.93481L5.40798 0.975011C6.29198 0.288611 7.18118 -0.0409388 8.06648 0.0039112C9.18188 0.0611112 10.0503 0.486211 10.7874 1.18366C11.5388 1.89476 12.025 2.90941 12.025 4.13921C12.025 5.08301 11.7507 5.91371 11.1715 6.65081L5.64458 12.3448C5.08558 12.8031 4.46418 13.0247 3.79858 12.9981C2.95358 12.963 2.32503 12.69 1.85768 12.2278C1.31038 11.6877 0.974976 11.024 0.974976 10.1316C0.974976 9.42176 1.22003 8.76656 1.72573 8.15166L6.59033 3.18501C6.98033 2.76901 7.36188 2.52201 7.75187 2.46221C8.01218 2.42121 8.27856 2.44449 8.52781 2.53003C8.77705 2.61557 9.0016 2.76076 9.18188 2.95296C9.52768 3.31891 9.67587 3.77521 9.62387 4.29456C9.58813 4.64881 9.44318 4.97511 9.17667 5.28776L4.70468 9.86896C4.66362 9.91123 4.61455 9.94491 4.56035 9.96803C4.50614 9.99114 4.44787 10.0032 4.38894 10.0036C4.33001 10.004 4.2716 9.99259 4.21711 9.97014C4.16263 9.94769 4.11315 9.91463 4.07158 9.87286C3.98693 9.78779 3.9391 9.67288 3.93837 9.55288C3.93764 9.43288 3.98408 9.3174 4.06768 9.23131L8.51823 4.67351C8.64822 4.52076 8.71648 4.36671 8.73273 4.20291C8.75873 3.94291 8.69633 3.75116 8.53448 3.58021C8.45274 3.49266 8.35062 3.42667 8.23722 3.38811C8.12382 3.34956 8.00264 3.33963 7.88448 3.35921C7.72653 3.38326 7.50553 3.52691 7.23318 3.81681L2.38873 8.76136C2.03968 9.18711 1.87068 9.63886 1.87068 10.1322C1.87068 10.7523 2.09493 11.1963 2.48298 11.5791C2.79173 11.8846 3.21098 12.0666 3.83498 12.0926C4.27698 12.1102 4.68648 11.9639 5.04268 11.6753L10.5007 6.05281C10.92 5.51526 11.1293 4.88281 11.1293 4.13986C11.1293 3.17656 10.7542 2.39526 10.1751 1.84666C9.58358 1.28636 8.90758 0.956161 8.02163 0.910661C7.36643 0.876861 6.67938 1.13166 5.99558 1.65556L2.12158 5.57636Z" fill="#374254"/>
</g>
<defs>
<clipPath id="clip0_419_135">
<rect width="13" height="13" fill="white"/>
</clipPath>
</defs>
</svg>
